<svg xmlns="http://www.w3.org/2000/svg" viewBox="0 0 1200 700"><defs><linearGradient id="s" x2="0" y2="1"><stop stop-color="#355f85"/><stop offset=".65" stop-color="#e9b57d"/><stop offset="1" stop-color="#f3d9af"/></linearGradient><linearGradient id="w" x2="0" y2="1"><stop stop-color="#436d78"/><stop offset="1" stop-color="#173c4b"/></linearGradient></defs><rect width="1200" height="700" fill="url(#s)"/><path d="M0 430 190 340 330 420 530 145 690 410 845 225 1040 410 1200 345V700H0Z" fill="#605c5b"/><path d="M450 255 530 145 620 300 560 265 525 305 502 250Z" fill="#f1eee5"/><path d="M795 290 845 225 905 320 860 300 840 330 825 280Z" fill="#f1eee5"/><path d="M0 450Q200 420 390 465T790 450T1200 465V700H0Z" fill="#24483d"/><path d="M0 515Q300 475 560 520T920 510T1200 525V700H0Z" fill="url(#w)"/><g opacity=".5" transform="translate(0,1040) scale(1,-1)"><path d="M0 430 190 340 330 420 530 145 690 410 845 225 1040 410 1200 345V700H0Z" fill="#71605c"/></g><path d="M0 600Q250 570 470 610T900 590T1200 610" stroke="#f5d8ad" stroke-width="5" fill="none" opacity=".45"/></svg>
